<mxfile host="app.diagrams.net" modified="2024-03-24T10:05:51.001Z" agent="Mozilla/5.0 (Windows NT 10.0; Win64; x64) AppleWebKit/537.36 (KHTML, like Gecko) Chrome/120.0.0.0 YaBrowser/24.1.0.0 Safari/537.36" version="24.1.0" etag="FbFjZxTFWime4fTZ9ctl" type="github">
  <diagram name="Страница — 1" id="aqE_W3EJTEGBDR6U3agE">
    <mxGraphModel>
      <root>
        <mxCell id="0" />
        <mxCell id="1" parent="0" />
      </root>
    </mxGraphModel>
  </diagram>
</mxfile>
